  0
SECTION
  2
HEADER
  9
$ACADVER
  1
AC1009
  9
$DWGCODEPAGE
  3
ansi_1252
  9
$INSBASE
 10
0.0
 20
0.0
 30
0.0
  9
$EXTMIN
 10
-164.9999999999999
 20
165.9532014746882
 30
78.68091985938406
  9
$EXTMAX
 10
-150.0
 20
189.9532014746882
 30
78.68091985938413
  9
$LIMMIN
 10
0.0
 20
0.0
  9
$LIMMAX
 10
12.0
 20
9.0
  9
$ORTHOMODE
 70
     0
  9
$REGENMODE
 70
     1
  9
$FILLMODE
 70
     1
  9
$QTEXTMODE
 70
     0
  9
$MIRRTEXT
 70
     1
  9
$DRAGMODE
 70
     2
  9
$LTSCALE
 40
1.0
  9
$OSMODE
 70
    37
  9
$ATTMODE
 70
     1
  9
$TEXTSIZE
 40
0.2
  9
$TRACEWID
 40
0.05
  9
$TEXTSTYLE
  7
STANDARD
  9
$CLAYER
  8
DEFAULT
  9
$CELTYPE
  6
BYLAYER
  9
$CECOLOR
 62
   256
  9
$DIMSCALE
 40
1.0
  9
$DIMASZ
 40
0.18
  9
$DIMEXO
 40
0.0625
  9
$DIMDLI
 40
0.38
  9
$DIMRND
 40
0.0
  9
$DIMDLE
 40
0.0
  9
$DIMEXE
 40
0.18
  9
$DIMTP
 40
0.0
  9
$DIMTM
 40
0.0
  9
$DIMTXT
 40
0.18
  9
$DIMCEN
 40
0.09
  9
$DIMTSZ
 40
0.0
  9
$DIMTOL
 70
     0
  9
$DIMLIM
 70
     0
  9
$DIMTIH
 70
     1
  9
$DIMTOH
 70
     1
  9
$DIMSE1
 70
     0
  9
$DIMSE2
 70
     0
  9
$DIMTAD
 70
     0
  9
$DIMZIN
 70
     0
  9
$DIMBLK
  1

  9
$DIMASO
 70
     1
  9
$DIMSHO
 70
     1
  9
$DIMPOST
  1

  9
$DIMAPOST
  1

  9
$DIMALT
 70
     0
  9
$DIMALTD
 70
     2
  9
$DIMALTF
 40
25.4
  9
$DIMLFAC
 40
1.0
  9
$DIMTOFL
 70
     0
  9
$DIMTVP
 40
0.0
  9
$DIMTIX
 70
     0
  9
$DIMSOXD
 70
     0
  9
$DIMSAH
 70
     0
  9
$DIMBLK1
  1

  9
$DIMBLK2
  1

  9
$DIMSTYLE
  2
STANDARD_ACAD
  9
$DIMCLRD
 70
     0
  9
$DIMCLRE
 70
     0
  9
$DIMCLRT
 70
     0
  9
$DIMTFAC
 40
1.0
  9
$DIMGAP
 40
0.09
  9
$LUNITS
 70
     2
  9
$LUPREC
 70
     3
  9
$SKETCHINC
 40
0.1
  9
$FILLETRAD
 40
0.0
  9
$AUNITS
 70
     0
  9
$AUPREC
 70
     0
  9
$MENU
  1
.
  9
$ELEVATION
 40
0.0
  9
$PELEVATION
 40
0.0
  9
$THICKNESS
 40
0.0
  9
$LIMCHECK
 70
     0
  9
$CHAMFERA
 40
0.0
  9
$CHAMFERB
 40
0.0
  9
$SKPOLY
 70
     0
  9
$TDCREATE
 40
2461014.577081065
  9
$TDUPDATE
 40
2461014.577091308
  9
$TDINDWG
 40
0.0000000116
  9
$TDUSRTIMER
 40
0.0000000116
  9
$USRTIMER
 70
     1
  9
$ANGBASE
 50
0.0
  9
$ANGDIR
 70
     0
  9
$PDMODE
 70
     0
  9
$PDSIZE
 40
0.0
  9
$PLINEWID
 40
0.0
  9
$COORDS
 70
     1
  9
$SPLFRAME
 70
     0
  9
$SPLINETYPE
 70
     6
  9
$SPLINESEGS
 70
     8
  9
$ATTDIA
 70
     0
  9
$ATTREQ
 70
     1
  9
$HANDLING
 70
     1
  9
$HANDSEED
  5
192
  9
$SURFTAB1
 70
     6
  9
$SURFTAB2
 70
     6
  9
$SURFTYPE
 70
     6
  9
$SURFU
 70
     6
  9
$SURFV
 70
     6
  9
$UCSNAME
  2

  9
$UCSORG
 10
0.0
 20
0.0
 30
0.0
  9
$UCSXDIR
 10
1.0
 20
0.0
 30
0.0
  9
$UCSYDIR
 10
0.0
 20
1.0
 30
0.0
  9
$PUCSNAME
  2

  9
$PUCSORG
 10
0.0
 20
0.0
 30
0.0
  9
$PUCSXDIR
 10
1.0
 20
0.0
 30
0.0
  9
$PUCSYDIR
 10
0.0
 20
1.0
 30
0.0
  9
$USERI1
 70
     0
  9
$USERI2
 70
     0
  9
$USERI3
 70
     0
  9
$USERI4
 70
     0
  9
$USERI5
 70
     0
  9
$USERR1
 40
0.0
  9
$USERR2
 40
0.0
  9
$USERR3
 40
0.0
  9
$USERR4
 40
0.0
  9
$USERR5
 40
0.0
  9
$WORLDVIEW
 70
     1
  9
$SHADEDGE
 70
     3
  9
$SHADEDIF
 70
    70
  9
$TILEMODE
 70
     1
  9
$MAXACTVP
 70
    64
  9
$PLIMCHECK
 70
     0
  9
$PEXTMIN
 10
1.000000000000000E+20
 20
1.000000000000000E+20
 30
1.000000000000000E+20
  9
$PEXTMAX
 10
-1.000000000000000E+20
 20
-1.000000000000000E+20
 30
-1.000000000000000E+20
  9
$PLIMMIN
 10
0.0
 20
0.0
  9
$PLIMMAX
 10
12.0
 20
9.0
  9
$UNITMODE
 70
     0
  9
$VISRETAIN
 70
     1
  9
$PLINEGEN
 70
     0
  9
$PSLTSCALE
 70
     1
  0
ENDSEC
  0
SECTION
  2
TABLES
  0
TABLE
  2
VPORT
 70
     1
  0
VPORT
  2
*ACTIVE
 70
     0
 10
0.0
 20
0.0
 11
1.0
 21
1.0
 12
10.42990654205607
 22
4.5
 13
0.0
 23
0.0
 14
0.5
 24
0.5
 15
0.5
 25
0.5
 16
0.0
 26
0.0
 36
1.0
 17
0.0
 27
0.0
 37
0.0
 40
9.0
 41
1.972972972850329
 42
50.0
 43
0.0
 44
0.0
 50
0.0
 51
0.0
 71
     0
 72
   100
 73
     1
 74
     3
 75
     0
 76
     0
 77
     0
 78
     0
  0
ENDTAB
  0
TABLE
  2
LTYPE
 70
     1
  0
LTYPE
  2
CONTINUOUS
 70
     0
  3
Solid line
 72
    65
 73
     0
 40
0.0
  0
ENDTAB
  0
TABLE
  2
LAYER
 70
     2
  0
LAYER
  2
0
 70
     0
 62
     7
  6
CONTINUOUS
  0
LAYER
  2
DEFAULT
 70
     0
 62
     7
  6
CONTINUOUS
  0
ENDTAB
  0
TABLE
  2
STYLE
 70
     1
  0
STYLE
  2
STANDARD
 70
     0
 40
0.0
 41
1.0
 50
0.0
 71
     0
 42
0.2
  3
txt
  4

  0
ENDTAB
  0
TABLE
  2
VIEW
 70
     0
  0
ENDTAB
  0
TABLE
  2
UCS
 70
     0
  0
ENDTAB
  0
TABLE
  2
APPID
 70
     2
  0
APPID
  2
ACAD
 70
     0
  0
APPID
  2
RHINO
 70
     0
  0
ENDTAB
  0
TABLE
  2
DIMSTYLE
 70
     1
  0
DIMSTYLE
  2
STANDARD_ACAD
 70
     0
  3

  4

  5

  6

  7

 40
1.0
 41
0.18
 42
0.0625
 43
0.38
 44
0.18
 45
0.0
 46
0.0
 47
0.0
 48
0.0
140
0.18
141
0.09
142
0.0
143
25.4
144
1.0
145
0.0
146
1.0
147
0.09
 71
     0
 72
     0
 73
     1
 74
     1
 75
     0
 76
     0
 77
     0
 78
     0
170
     0
171
     2
172
     0
173
     0
174
     0
175
     0
176
     0
177
     0
178
     0
  0
ENDTAB
  0
ENDSEC
  0
SECTION
  2
BLOCKS
  0
BLOCK
  8
0
  2
$MODEL_SPACE
 70
     0
 10
0.0
 20
0.0
 30
0.0
  3
$MODEL_SPACE
  1

  0
ENDBLK
  5
21
  8
0
  0
BLOCK
 67
     1
  8
0
  2
$PAPER_SPACE
 70
     0
 10
0.0
 20
0.0
 30
0.0
  3
$PAPER_SPACE
  1

  0
ENDBLK
  5
1D
 67
     1
  8
0
  0
ENDSEC
  0
SECTION
  2
ENTITIES
  0
CIRCLE
  5
60
  8
DEFAULT
 10
157.5
 20
177.9532014746882
 30
-78.68091985938408
 40
5.0
210
0.0
220
0.0
230
-1.0
  0
POLYLINE
  5
61
  8
DEFAULT
 66
     1
 10
0.0
 20
0.0
 30
78.68091985938413
 70
     1
  0
VERTEX
  5
62
  8
DEFAULT
 10
-164.9999999999999
 20
187.9532014746882
 30
78.68091985938413
  0
VERTEX
  5
63
  8
DEFAULT
 10
-164.9999999999999
 20
167.9532014746882
 30
78.68091985938413
  0
VERTEX
  5
64
  8
DEFAULT
 10
-164.999053955078
 20
167.7041475196102
 30
78.68091985938413
  0
VERTEX
  5
65
  8
DEFAULT
 10
-164.9926757812498
 20
167.4605256934384
 30
78.68091985938413
  0
VERTEX
  5
66
  8
DEFAULT
 10
-164.9859333038328
 20
167.3422681708554
 30
78.68091985938413
  0
VERTEX
  5
67
  8
DEFAULT
 10
-164.976104736328
 20
167.2270967383603
 30
78.68091985938413
  0
VERTEX
  5
68
  8
DEFAULT
 10
-164.9698811769484
 20
167.1708202977399
 30
78.68091985938413
  0
VERTEX
  5
69
  8
DEFAULT
 10
-164.9627094268797
 20
167.1154920478086
 30
78.68091985938413
  0
VERTEX
  5
6A
  8
DEFAULT
 10
-164.9545365571974
 20
167.0611649174909
 30
78.68091985938413
  0
VERTEX
  5
6B
  8
DEFAULT
 10
-164.9453124999998
 20
167.0078889746885
 30
78.68091985938413
  0
VERTEX
  5
6C
  8
DEFAULT
 10
-164.9349900484083
 20
166.95571142628
 30
78.68091985938413
  0
VERTEX
  5
6D
  8
DEFAULT
 10
-164.9235248565672
 20
166.9046766181211
 30
78.68091985938413
  0
VERTEX
  5
6E
  8
DEFAULT
 10
-164.9108754396437
 20
166.8548260350447
 30
78.68091985938413
  0
VERTEX
  5
6F
  8
DEFAULT
 10
-164.897003173828
 20
166.8061983008604
 30
78.68091985938413
  0
VERTEX
  5
70
  8
DEFAULT
 10
-164.8818722963332
 20
166.7588291783552
 30
78.68091985938413
  0
VERTEX
  5
71
  8
DEFAULT
 10
-164.8654499053954
 20
166.712751569293
 30
78.68091985938413
  0
VERTEX
  5
72
  8
DEFAULT
 10
-164.8567448928951
 20
166.6902065817933
 30
78.68091985938413
  0
VERTEX
  5
73
  8
DEFAULT
 10
-164.8477059602736
 20
166.6679955144148
 30
78.68091985938413
  0
VERTEX
  5
74
  8
DEFAULT
 10
-164.8383297994732
 20
166.6461216752152
 30
78.68091985938413
  0
VERTEX
  5
75
  8
DEFAULT
 10
-164.8286132812499
 20
166.6245881934385
 30
78.68091985938413
  0
VERTEX
  5
76
  8
DEFAULT
 10
-164.8185534551739
 20
166.6033980195145
 30
78.68091985938413
  0
VERTEX
  5
77
  8
DEFAULT
 10
-164.8081475496291
 20
166.5825539250593
 30
78.68091985938413
  0
VERTEX
  5
78
  8
DEFAULT
 10
-164.7973929718136
 20
166.5620585028748
 30
78.68091985938413
  0
VERTEX
  5
79
  8
DEFAULT
 10
-164.7862873077392
 20
166.5419141669493
 30
78.68091985938413
  0
VERTEX
  5
7A
  8
DEFAULT
 10
-164.7748283222317
 20
166.5221231524567
 30
78.68091985938413
  0
VERTEX
  5
7B
  8
DEFAULT
 10
-164.7630139589309
 20
166.5026875157575
 30
78.68091985938413
  0
VERTEX
  5
7C
  8
DEFAULT
 10
-164.7508423402905
 20
166.483609134398
 30
78.68091985938413
  0
VERTEX
  5
7D
  8
DEFAULT
 10
-164.7383117675781
 20
166.4648897071104
 30
78.68091985938413
  0
VERTEX
  5
7E
  8
DEFAULT
 10
-164.7254207208753
 20
166.4465307538132
 30
78.68091985938413
  0
VERTEX
  5
7F
  8
DEFAULT
 10
-164.7121678590775
 20
166.428533615611
 30
78.68091985938413
  0
VERTEX
  5
80
  8
DEFAULT
 10
-164.6985520198941
 20
166.4108994547943
 30
78.68091985938413
  0
VERTEX
  5
81
  8
DEFAULT
 10
-164.6845722198486
 20
166.3936292548398
 30
78.68091985938413
  0
VERTEX
  5
82
  8
DEFAULT
 10
-164.6702276542783
 20
166.3767238204102
 30
78.68091985938413
  0
VERTEX
  5
83
  8
DEFAULT
 10
-164.6555176973343
 20
166.3601837773542
 30
78.68091985938413
  0
VERTEX
  5
84
  8
DEFAULT
 10
-164.6404419019819
 20
166.3440095727066
 30
78.68091985938413
  0
VERTEX
  5
85
  8
DEFAULT
 10
-164.625
 20
166.3282014746884
 30
78.68091985938413
  0
VERTEX
  5
86
  8
DEFAULT
 10
-164.6091919019819
 20
166.3127595727066
 30
78.68091985938413
  0
VERTEX
  5
87
  8
DEFAULT
 10
-164.5930176973343
 20
166.2976837773541
 30
78.68091985938413
  0
VERTEX
  5
88
  8
DEFAULT
 10
-164.5764776542783
 20
166.2829738204101
 30
78.68091985938413
  0
VERTEX
  5
89
  8
DEFAULT
 10
-164.5595722198487
 20
166.2686292548398
 30
78.68091985938413
  0
VERTEX
  5
8A
  8
DEFAULT
 10
-164.5423020198942
 20
166.2546494547943
 30
78.68091985938413
  0
VERTEX
  5
8B
  8
DEFAULT
 10
-164.5246678590775
 20
166.2410336156109
 30
78.68091985938413
  0
VERTEX
  5
8C
  8
DEFAULT
 10
-164.5066707208753
 20
166.2277807538131
 30
78.68091985938413
  0
VERTEX
  5
8D
  8
DEFAULT
 10
-164.4883117675782
 20
166.2148897071102
 30
78.68091985938413
  0
VERTEX
  5
8E
  8
DEFAULT
 10
-164.4695923402906
 20
166.2023591343978
 30
78.68091985938413
  0
VERTEX
  5
8F
  8
DEFAULT
 10
-164.4505139589311
 20
166.1901875157573
 30
78.68091985938413
  0
VERTEX
  5
90
  8
DEFAULT
 10
-164.4310783222319
 20
166.1783731524565
 30
78.68091985938413
  0
VERTEX
  5
91
  8
DEFAULT
 10
-164.4112873077394
 20
166.166914166949
 30
78.68091985938413
  0
VERTEX
  5
92
  8
DEFAULT
 10
-164.3911429718138
 20
166.1558085028746
 30
78.68091985938413
  0
VERTEX
  5
93
  8
DEFAULT
 10
-164.3706475496293
 20
166.1450539250591
 30
78.68091985938413
  0
VERTEX
  5
94
  8
DEFAULT
 10
-164.3498034551741
 20
166.1346480195143
 30
78.68091985938413
  0
VERTEX
  5
95
  8
DEFAULT
 10
-164.3286132812501
 20
166.1245881934383
 30
78.68091985938413
  0
VERTEX
  5
96
  8
DEFAULT
 10
-164.3070797994735
 20
166.114871675215
 30
78.68091985938413
  0
VERTEX
  5
97
  8
DEFAULT
 10
-164.2852059602739
 20
166.1054955144146
 30
78.68091985938413
  0
VERTEX
  5
98
  8
DEFAULT
 10
-164.2629948928954
 20
166.0964565817931
 30
78.68091985938413
  0
VERTEX
  5
99
  8
DEFAULT
 10
-164.2404499053957
 20
166.0877515692928
 30
78.68091985938413
  0
VERTEX
  5
9A
  8
DEFAULT
 10
-164.1943722963335
 20
166.071329178355
 30
78.68091985938413
  0
VERTEX
  5
9B
  8
DEFAULT
 10
-164.1470031738283
 20
166.0561983008602
 30
78.68091985938413
  0
VERTEX
  5
9C
  8
DEFAULT
 10
-164.0983754396441
 20
166.0423260350444
 30
78.68091985938413
  0
VERTEX
  5
9D
  8
DEFAULT
 10
-164.0485248565676
 20
166.0296766181209
 30
78.68091985938413
  0
VERTEX
  5
9E
  8
DEFAULT
 10
-163.9974900484087
 20
166.0182114262797
 30
78.68091985938413
  0
VERTEX
  5
9F
  8
DEFAULT
 10
-163.9453125000002
 20
166.0078889746882
 30
78.68091985938413
  0
VERTEX
  5
A0
  8
DEFAULT
 10
-163.8920365571978
 20
165.9986649174907
 30
78.68091985938413
  0
VERTEX
  5
A1
  8
DEFAULT
 10
-163.8377094268801
 20
165.9904920478083
 30
78.68091985938413
  0
VERTEX
  5
A2
  8
DEFAULT
 10
-163.7823811769488
 20
165.9833202977397
 30
78.68091985938413
  0
VERTEX
  5
A3
  8
DEFAULT
 10
-163.7261047363284
 20
165.9770967383601
 30
78.68091985938413
  0
VERTEX
  5
A4
  8
DEFAULT
 10
-163.6109333038332
 20
165.9672681708552
 30
78.68091985938413
  0
VERTEX
  5
A5
  8
DEFAULT
 10
-163.4926757812502
 20
165.9605256934382
 30
78.68091985938413
  0
VERTEX
  5
A6
  8
DEFAULT
 10
-163.2490539550783
 20
165.95414751961
 30
78.68091985938413
  0
VERTEX
  5
A7
  8
DEFAULT
 10
-163.0000000000001
 20
165.9532014746882
 30
78.68091985938413
  0
VERTEX
  5
A8
  8
DEFAULT
 10
-152.0
 20
165.9532014746882
 30
78.68091985938413
  0
VERTEX
  5
A9
  8
DEFAULT
 10
-151.7509460449219
 20
165.9541475196101
 30
78.68091985938413
  0
VERTEX
  5
AA
  8
DEFAULT
 10
-151.50732421875
 20
165.9605256934382
 30
78.68091985938413
  0
VERTEX
  5
AB
  8
DEFAULT
 10
-151.389066696167
 20
165.9672681708552
 30
78.68091985938413
  0
VERTEX
  5
AC
  8
DEFAULT
 10
-151.2738952636719
 20
165.9770967383601
 30
78.68091985938413
  0
VERTEX
  5
AD
  8
DEFAULT
 10
-151.2176188230515
 20
165.9833202977397
 30
78.68091985938413
  0
VERTEX
  5
AE
  8
DEFAULT
 10
-151.1622905731201
 20
165.9904920478083
 30
78.68091985938413
  0
VERTEX
  5
AF
  8
DEFAULT
 10
-151.1079634428024
 20
165.9986649174906
 30
78.68091985938413
  0
VERTEX
  5
B0
  8
DEFAULT
 10
-151.0546875
 20
166.0078889746882
 30
78.68091985938413
  0
VERTEX
  5
B1
  8
DEFAULT
 10
-151.0025099515915
 20
166.0182114262797
 30
78.68091985938413
  0
VERTEX
  5
B2
  8
DEFAULT
 10
-150.9514751434327
 20
166.0296766181208
 30
78.68091985938413
  0
VERTEX
  5
B3
  8
DEFAULT
 10
-150.9016245603562
 20
166.0423260350443
 30
78.68091985938413
  0
VERTEX
  5
B4
  8
DEFAULT
 10
-150.8529968261719
 20
166.05619830086
 30
78.68091985938413
  0
VERTEX
  5
B5
  8
DEFAULT
 10
-150.8056277036667
 20
166.0713291783549
 30
78.68091985938413
  0
VERTEX
  5
B6
  8
DEFAULT
 10
-150.7595500946045
 20
166.0877515692927
 30
78.68091985938413
  0
VERTEX
  5
B7
  8
DEFAULT
 10
-150.7370051071048
 20
166.0964565817929
 30
78.68091985938413
  0
VERTEX
  5
B8
  8
DEFAULT
 10
-150.7147940397263
 20
166.1054955144144
 30
78.68091985938413
  0
VERTEX
  5
B9
  8
DEFAULT
 10
-150.6929202005268
 20
166.1148716752149
 30
78.68091985938413
  0
VERTEX
  5
BA
  8
DEFAULT
 10
-150.67138671875
 20
166.1245881934382
 30
78.68091985938413
  0
VERTEX
  5
BB
  8
DEFAULT
 10
-150.650196544826
 20
166.1346480195142
 30
78.68091985938413
  0
VERTEX
  5
BC
  8
DEFAULT
 10
-150.6293524503708
 20
166.145053925059
 30
78.68091985938413
  0
VERTEX
  5
BD
  8
DEFAULT
 10
-150.6088570281863
 20
166.1558085028745
 30
78.68091985938413
  0
VERTEX
  5
BE
  8
DEFAULT
 10
-150.5887126922607
 20
166.1669141669489
 30
78.68091985938413
  0
VERTEX
  5
BF
  8
DEFAULT
 10
-150.5689216777682
 20
166.1783731524564
 30
78.68091985938413
  0
VERTEX
  5
C0
  8
DEFAULT
 10
-150.549486041069
 20
166.1901875157572
 30
78.68091985938413
  0
VERTEX
  5
C1
  8
DEFAULT
 10
-150.5304076597095
 20
166.2023591343976
 30
78.68091985938413
  0
VERTEX
  5
C2
  8
DEFAULT
 10
-150.5116882324219
 20
166.21488970711
 30
78.68091985938413
  0
VERTEX
  5
C3
  8
DEFAULT
 10
-150.4933292791247
 20
166.2277807538129
 30
78.68091985938413
  0
VERTEX
  5
C4
  8
DEFAULT
 10
-150.4753321409225
 20
166.2410336156107
 30
78.68091985938413
  0
VERTEX
  5
C5
  8
DEFAULT
 10
-150.4576979801059
 20
166.254649454794
 30
78.68091985938413
  0
VERTEX
  5
C6
  8
DEFAULT
 10
-150.4404277801514
 20
166.2686292548395
 30
78.68091985938413
  0
VERTEX
  5
C7
  8
DEFAULT
 10
-150.4235223457217
 20
166.2829738204099
 30
78.68091985938413
  0
VERTEX
  5
C8
  8
DEFAULT
 10
-150.4069823026657
 20
166.2976837773539
 30
78.68091985938413
  0
VERTEX
  5
C9
  8
DEFAULT
 10
-150.3908080980182
 20
166.3127595727063
 30
78.68091985938413
  0
VERTEX
  5
CA
  8
DEFAULT
 10
-150.375
 20
166.3282014746882
 30
78.68091985938413
  0
VERTEX
  5
CB
  8
DEFAULT
 10
-150.3595580980182
 20
166.3440095727063
 30
78.68091985938413
  0
VERTEX
  5
CC
  8
DEFAULT
 10
-150.3444823026657
 20
166.3601837773539
 30
78.68091985938413
  0
VERTEX
  5
CD
  8
DEFAULT
 10
-150.3297723457217
 20
166.3767238204099
 30
78.68091985938413
  0
VERTEX
  5
CE
  8
DEFAULT
 10
-150.3154277801514
 20
166.3936292548395
 30
78.68091985938413
  0
VERTEX
  5
CF
  8
DEFAULT
 10
-150.3014479801059
 20
166.410899454794
 30
78.68091985938413
  0
VERTEX
  5
D0
  8
DEFAULT
 10
-150.2878321409225
 20
166.4285336156107
 30
78.68091985938413
  0
VERTEX
  5
D1
  8
DEFAULT
 10
-150.2745792791247
 20
166.4465307538129
 30
78.68091985938413
  0
VERTEX
  5
D2
  8
DEFAULT
 10
-150.2616882324219
 20
166.46488970711
 30
78.68091985938413
  0
VERTEX
  5
D3
  8
DEFAULT
 10
-150.2491576597095
 20
166.4836091343976
 30
78.68091985938413
  0
VERTEX
  5
D4
  8
DEFAULT
 10
-150.236986041069
 20
166.5026875157572
 30
78.68091985938413
  0
VERTEX
  5
D5
  8
DEFAULT
 10
-150.2251716777682
 20
166.5221231524564
 30
78.68091985938413
  0
VERTEX
  5
D6
  8
DEFAULT
 10
-150.2137126922607
 20
166.5419141669489
 30
78.68091985938413
  0
VERTEX
  5
D7
  8
DEFAULT
 10
-150.2026070281863
 20
166.5620585028745
 30
78.68091985938413
  0
VERTEX
  5
D8
  8
DEFAULT
 10
-150.1918524503708
 20
166.582553925059
 30
78.68091985938413
  0
VERTEX
  5
D9
  8
DEFAULT
 10
-150.181446544826
 20
166.6033980195142
 30
78.68091985938413
  0
VERTEX
  5
DA
  8
DEFAULT
 10
-150.17138671875
 20
166.6245881934382
 30
78.68091985938413
  0
VERTEX
  5
DB
  8
DEFAULT
 10
-150.1616702005267
 20
166.6461216752149
 30
78.68091985938413
  0
VERTEX
  5
DC
  8
DEFAULT
 10
-150.1522940397263
 20
166.6679955144144
 30
78.68091985938413
  0
VERTEX
  5
DD
  8
DEFAULT
 10
-150.1432551071048
 20
166.6902065817929
 30
78.68091985938413
  0
VERTEX
  5
DE
  8
DEFAULT
 10
-150.1345500946045
 20
166.7127515692927
 30
78.68091985938413
  0
VERTEX
  5
DF
  8
DEFAULT
 10
-150.1181277036667
 20
166.7588291783549
 30
78.68091985938413
  0
VERTEX
  5
E0
  8
DEFAULT
 10
-150.1029968261719
 20
166.80619830086
 30
78.68091985938413
  0
VERTEX
  5
E1
  8
DEFAULT
 10
-150.0891245603561
 20
166.8548260350443
 30
78.68091985938413
  0
VERTEX
  5
E2
  8
DEFAULT
 10
-150.0764751434326
 20
166.9046766181208
 30
78.68091985938413
  0
VERTEX
  5
E3
  8
DEFAULT
 10
-150.0650099515915
 20
166.9557114262797
 30
78.68091985938413
  0
VERTEX
  5
E4
  8
DEFAULT
 10
-150.0546875
 20
167.0078889746882
 30
78.68091985938413
  0
VERTEX
  5
E5
  8
DEFAULT
 10
-150.0454634428024
 20
167.0611649174906
 30
78.68091985938413
  0
VERTEX
  5
E6
  8
DEFAULT
 10
-150.0372905731201
 20
167.1154920478083
 30
78.68091985938413
  0
VERTEX
  5
E7
  8
DEFAULT
 10
-150.0301188230515
 20
167.1708202977396
 30
78.68091985938413
  0
VERTEX
  5
E8
  8
DEFAULT
 10
-150.0238952636718
 20
167.22709673836
 30
78.68091985938413
  0
VERTEX
  5
E9
  8
DEFAULT
 10
-150.0140666961669
 20
167.3422681708551
 30
78.68091985938413
  0
VERTEX
  5
EA
  8
DEFAULT
 10
-150.00732421875
 20
167.4605256934381
 30
78.68091985938413
  0
VERTEX
  5
EB
  8
DEFAULT
 10
-150.0009460449219
 20
167.70414751961
 30
78.68091985938413
  0
VERTEX
  5
EC
  8
DEFAULT
 10
-150.0
 20
167.9532014746881
 30
78.68091985938413
  0
VERTEX
  5
ED
  8
DEFAULT
 10
-150.0
 20
187.9532014746882
 30
78.68091985938413
  0
VERTEX
  5
EE
  8
DEFAULT
 10
-150.0009460449219
 20
188.2022554297662
 30
78.68091985938413
  0
VERTEX
  5
EF
  8
DEFAULT
 10
-150.0073242187501
 20
188.4458772559381
 30
78.68091985938413
  0
VERTEX
  5
F0
  8
DEFAULT
 10
-150.014066696167
 20
188.5641347785211
 30
78.68091985938413
  0
VERTEX
  5
F1
  8
DEFAULT
 10
-150.023895263672
 20
188.6793062110162
 30
78.68091985938413
  0
VERTEX
  5
F2
  8
DEFAULT
 10
-150.0301188230516
 20
188.7355826516366
 30
78.68091985938413
  0
VERTEX
  5
F3
  8
DEFAULT
 10
-150.0372905731202
 20
188.7909109015679
 30
78.68091985938413
  0
VERTEX
  5
F4
  8
DEFAULT
 10
-150.0454634428025
 20
188.8452380318856
 30
78.68091985938413
  0
VERTEX
  5
F5
  8
DEFAULT
 10
-150.0546875000001
 20
188.898513974688
 30
78.68091985938413
  0
VERTEX
  5
F6
  8
DEFAULT
 10
-150.0650099515916
 20
188.9506915230965
 30
78.68091985938413
  0
VERTEX
  5
F7
  8
DEFAULT
 10
-150.0764751434327
 20
189.0017263312554
 30
78.68091985938413
  0
VERTEX
  5
F8
  8
DEFAULT
 10
-150.0891245603562
 20
189.0515769143319
 30
78.68091985938413
  0
VERTEX
  5
F9
  8
DEFAULT
 10
-150.1029968261719
 20
189.1002046485161
 30
78.68091985938413
  0
VERTEX
  5
FA
  8
DEFAULT
 10
-150.1181277036667
 20
189.1475737710213
 30
78.68091985938413
  0
VERTEX
  5
FB
  8
DEFAULT
 10
-150.1345500946045
 20
189.1936513800835
 30
78.68091985938413
  0
VERTEX
  5
FC
  8
DEFAULT
 10
-150.1432551071048
 20
189.2161963675832
 30
78.68091985938413
  0
VERTEX
  5
FD
  8
DEFAULT
 10
-150.1522940397263
 20
189.2384074349617
 30
78.68091985938413
  0
VERTEX
  5
FE
  8
DEFAULT
 10
-150.1616702005268
 20
189.2602812741613
 30
78.68091985938413
  0
VERTEX
  5
FF
  8
DEFAULT
 10
-150.1713867187501
 20
189.281814755938
 30
78.68091985938413
  0
VERTEX
  5
100
  8
DEFAULT
 10
-150.1814465448261
 20
189.303004929862
 30
78.68091985938413
  0
VERTEX
  5
101
  8
DEFAULT
 10
-150.1918524503708
 20
189.3238490243173
 30
78.68091985938413
  0
VERTEX
  5
102
  8
DEFAULT
 10
-150.2026070281864
 20
189.3443444465017
 30
78.68091985938413
  0
VERTEX
  5
103
  8
DEFAULT
 10
-150.2137126922608
 20
189.3644887824273
 30
78.68091985938413
  0
VERTEX
  5
104
  8
DEFAULT
 10
-150.2251716777683
 20
189.3842797969198
 30
78.68091985938413
  0
VERTEX
  5
105
  8
DEFAULT
 10
-150.2369860410691
 20
189.403715433619
 30
78.68091985938413
  0
VERTEX
  5
106
  8
DEFAULT
 10
-150.2491576597095
 20
189.4227938149786
 30
78.68091985938413
  0
VERTEX
  5
107
  8
DEFAULT
 10
-150.2616882324219
 20
189.4415132422662
 30
78.68091985938413
  0
VERTEX
  5
108
  8
DEFAULT
 10
-150.2745792791248
 20
189.4598721955633
 30
78.68091985938413
  0
VERTEX
  5
109
  8
DEFAULT
 10
-150.2878321409226
 20
189.4778693337655
 30
78.68091985938413
  0
VERTEX
  5
10A
  8
DEFAULT
 10
-150.3014479801059
 20
189.4955034945822
 30
78.68091985938413
  0
VERTEX
  5
10B
  8
DEFAULT
 10
-150.3154277801514
 20
189.5127736945367
 30
78.68091985938413
  0
VERTEX
  5
10C
  8
DEFAULT
 10
-150.3297723457217
 20
189.5296791289663
 30
78.68091985938413
  0
VERTEX
  5
10D
  8
DEFAULT
 10
-150.3444823026657
 20
189.5462191720223
 30
78.68091985938413
  0
VERTEX
  5
10E
  8
DEFAULT
 10
-150.3595580980182
 20
189.5623933766699
 30
78.68091985938413
  0
VERTEX
  5
10F
  8
DEFAULT
 10
-150.375
 20
189.5782014746881
 30
78.68091985938413
  0
VERTEX
  5
110
  8
DEFAULT
 10
-150.3908080980182
 20
189.5936433766699
 30
78.68091985938413
  0
VERTEX
  5
111
  8
DEFAULT
 10
-150.4069823026657
 20
189.6087191720223
 30
78.68091985938413
  0
VERTEX
  5
112
  8
DEFAULT
 10
-150.4235223457217
 20
189.6234291289663
 30
78.68091985938413
  0
VERTEX
  5
113
  8
DEFAULT
 10
-150.4404277801513
 20
189.6377736945367
 30
78.68091985938413
  0
VERTEX
  5
114
  8
DEFAULT
 10
-150.4576979801058
 20
189.6517534945822
 30
78.68091985938413
  0
VERTEX
  5
115
  8
DEFAULT
 10
-150.4753321409225
 20
189.6653693337655
 30
78.68091985938413
  0
VERTEX
  5
116
  8
DEFAULT
 10
-150.4933292791247
 20
189.6786221955633
 30
78.68091985938413
  0
VERTEX
  5
117
  8
DEFAULT
 10
-150.5116882324218
 20
189.6915132422662
 30
78.68091985938413
  0
VERTEX
  5
118
  8
DEFAULT
 10
-150.5304076597094
 20
189.7040438149786
 30
78.68091985938413
  0
VERTEX
  5
119
  8
DEFAULT
 10
-150.549486041069
 20
189.7162154336191
 30
78.68091985938413
  0
VERTEX
  5
11A
  8
DEFAULT
 10
-150.5689216777682
 20
189.7280297969199
 30
78.68091985938413
  0
VERTEX
  5
11B
  8
DEFAULT
 10
-150.5887126922607
 20
189.7394887824274
 30
78.68091985938413
  0
VERTEX
  5
11C
  8
DEFAULT
 10
-150.6088570281863
 20
189.7505944465018
 30
78.68091985938413
  0
VERTEX
  5
11D
  8
DEFAULT
 10
-150.6293524503707
 20
189.7613490243173
 30
78.68091985938413
  0
VERTEX
  5
11E
  8
DEFAULT
 10
-150.650196544826
 20
189.7717549298621
 30
78.68091985938413
  0
VERTEX
  5
11F
  8
DEFAULT
 10
-150.6713867187499
 20
189.7818147559381
 30
78.68091985938413
  0
VERTEX
  5
120
  8
DEFAULT
 10
-150.6929202005267
 20
189.7915312741614
 30
78.68091985938413
  0
VERTEX
  5
121
  8
DEFAULT
 10
-150.7147940397262
 20
189.8009074349619
 30
78.68091985938413
  0
VERTEX
  5
122
  8
DEFAULT
 10
-150.7370051071047
 20
189.8099463675833
 30
78.68091985938413
  0
VERTEX
  5
123
  8
DEFAULT
 10
-150.7595500946044
 20
189.8186513800836
 30
78.68091985938413
  0
VERTEX
  5
124
  8
DEFAULT
 10
-150.8056277036666
 20
189.8350737710214
 30
78.68091985938413
  0
VERTEX
  5
125
  8
DEFAULT
 10
-150.8529968261718
 20
189.8502046485162
 30
78.68091985938413
  0
VERTEX
  5
126
  8
DEFAULT
 10
-150.9016245603561
 20
189.864076914332
 30
78.68091985938413
  0
VERTEX
  5
127
  8
DEFAULT
 10
-150.9514751434326
 20
189.8767263312555
 30
78.68091985938413
  0
VERTEX
  5
128
  8
DEFAULT
 10
-151.0025099515914
 20
189.8881915230966
 30
78.68091985938413
  0
VERTEX
  5
129
  8
DEFAULT
 10
-151.0546874999999
 20
189.8985139746881
 30
78.68091985938413
  0
VERTEX
  5
12A
  8
DEFAULT
 10
-151.1079634428024
 20
189.9077380318857
 30
78.68091985938413
  0
VERTEX
  5
12B
  8
DEFAULT
 10
-151.16229057312
 20
189.915910901568
 30
78.68091985938413
  0
VERTEX
  5
12C
  8
DEFAULT
 10
-151.2176188230513
 20
189.9230826516367
 30
78.68091985938413
  0
VERTEX
  5
12D
  8
DEFAULT
 10
-151.2738952636718
 20
189.9293062110163
 30
78.68091985938413
  0
VERTEX
  5
12E
  8
DEFAULT
 10
-151.3890666961669
 20
189.9391347785212
 30
78.68091985938413
  0
VERTEX
  5
12F
  8
DEFAULT
 10
-151.5073242187499
 20
189.9458772559382
 30
78.68091985938413
  0
VERTEX
  5
130
  8
DEFAULT
 10
-151.7509460449218
 20
189.9522554297663
 30
78.68091985938413
  0
VERTEX
  5
131
  8
DEFAULT
 10
-151.9999999999999
 20
189.9532014746882
 30
78.68091985938413
  0
VERTEX
  5
132
  8
DEFAULT
 10
-163.0
 20
189.9532014746881
 30
78.68091985938413
  0
VERTEX
  5
133
  8
DEFAULT
 10
-163.2490539550782
 20
189.9522554297662
 30
78.68091985938413
  0
VERTEX
  5
134
  8
DEFAULT
 10
-163.49267578125
 20
189.9458772559381
 30
78.68091985938413
  0
VERTEX
  5
135
  8
DEFAULT
 10
-163.6109333038331
 20
189.9391347785212
 30
78.68091985938413
  0
VERTEX
  5
136
  8
DEFAULT
 10
-163.7261047363282
 20
189.9293062110163
 30
78.68091985938413
  0
VERTEX
  5
137
  8
DEFAULT
 10
-163.7823811769486
 20
189.9230826516367
 30
78.68091985938413
  0
VERTEX
  5
138
  8
DEFAULT
 10
-163.8377094268799
 20
189.915910901568
 30
78.68091985938413
  0
VERTEX
  5
139
  8
DEFAULT
 10
-163.8920365571976
 20
189.9077380318857
 30
78.68091985938413
  0
VERTEX
  5
13A
  8
DEFAULT
 10
-163.9453125
 20
189.8985139746881
 30
78.68091985938413
  0
VERTEX
  5
13B
  8
DEFAULT
 10
-163.9974900484085
 20
189.8881915230966
 30
78.68091985938413
  0
VERTEX
  5
13C
  8
DEFAULT
 10
-164.0485248565674
 20
189.8767263312555
 30
78.68091985938413
  0
VERTEX
  5
13D
  8
DEFAULT
 10
-164.0983754396439
 20
189.864076914332
 30
78.68091985938413
  0
VERTEX
  5
13E
  8
DEFAULT
 10
-164.1470031738281
 20
189.8502046485162
 30
78.68091985938413
  0
VERTEX
  5
13F
  8
DEFAULT
 10
-164.1943722963333
 20
189.8350737710214
 30
78.68091985938413
  0
VERTEX
  5
140
  8
DEFAULT
 10
-164.2404499053955
 20
189.8186513800836
 30
78.68091985938413
  0
VERTEX
  5
141
  8
DEFAULT
 10
-164.2629948928952
 20
189.8099463675833
 30
78.68091985938413
  0
VERTEX
  5
142
  8
DEFAULT
 10
-164.2852059602737
 20
189.8009074349619
 30
78.68091985938413
  0
VERTEX
  5
143
  8
DEFAULT
 10
-164.3070797994733
 20
189.7915312741614
 30
78.68091985938413
  0
VERTEX
  5
144
  8
DEFAULT
 10
-164.32861328125
 20
189.7818147559381
 30
78.68091985938413
  0
VERTEX
  5
145
  8
DEFAULT
 10
-164.349803455174
 20
189.7717549298621
 30
78.68091985938413
  0
VERTEX
  5
146
  8
DEFAULT
 10
-164.3706475496292
 20
189.7613490243173
 30
78.68091985938413
  0
VERTEX
  5
147
  8
DEFAULT
 10
-164.3911429718137
 20
189.7505944465018
 30
78.68091985938413
  0
VERTEX
  5
148
  8
DEFAULT
 10
-164.4112873077393
 20
189.7394887824274
 30
78.68091985938413
  0
VERTEX
  5
149
  8
DEFAULT
 10
-164.4310783222318
 20
189.7280297969199
 30
78.68091985938413
  0
VERTEX
  5
14A
  8
DEFAULT
 10
-164.450513958931
 20
189.7162154336191
 30
78.68091985938413
  0
VERTEX
  5
14B
  8
DEFAULT
 10
-164.4695923402905
 20
189.7040438149786
 30
78.68091985938413
  0
VERTEX
  5
14C
  8
DEFAULT
 10
-164.4883117675781
 20
189.6915132422662
 30
78.68091985938413
  0
VERTEX
  5
14D
  8
DEFAULT
 10
-164.5066707208753
 20
189.6786221955633
 30
78.68091985938413
  0
VERTEX
  5
14E
  8
DEFAULT
 10
-164.5246678590775
 20
189.6653693337655
 30
78.68091985938413
  0
VERTEX
  5
14F
  8
DEFAULT
 10
-164.5423020198941
 20
189.6517534945822
 30
78.68091985938413
  0
VERTEX
  5
150
  8
DEFAULT
 10
-164.5595722198486
 20
189.6377736945367
 30
78.68091985938413
  0
VERTEX
  5
151
  8
DEFAULT
 10
-164.5764776542783
 20
189.6234291289664
 30
78.68091985938413
  0
VERTEX
  5
152
  8
DEFAULT
 10
-164.5930176973342
 20
189.6087191720224
 30
78.68091985938413
  0
VERTEX
  5
153
  8
DEFAULT
 10
-164.6091919019818
 20
189.5936433766699
 30
78.68091985938413
  0
VERTEX
  5
154
  8
DEFAULT
 10
-164.625
 20
189.5782014746881
 30
78.68091985938413
  0
VERTEX
  5
155
  8
DEFAULT
 10
-164.6404419019818
 20
189.5623933766699
 30
78.68091985938413
  0
VERTEX
  5
156
  8
DEFAULT
 10
-164.6555176973343
 20
189.5462191720223
 30
78.68091985938413
  0
VERTEX
  5
157
  8
DEFAULT
 10
-164.6702276542783
 20
189.5296791289664
 30
78.68091985938413
  0
VERTEX
  5
158
  8
DEFAULT
 10
-164.6845722198486
 20
189.5127736945367
 30
78.68091985938413
  0
VERTEX
  5
159
  8
DEFAULT
 10
-164.6985520198941
 20
189.4955034945822
 30
78.68091985938413
  0
VERTEX
  5
15A
  8
DEFAULT
 10
-164.7121678590774
 20
189.4778693337656
 30
78.68091985938413
  0
VERTEX
  5
15B
  8
DEFAULT
 10
-164.7254207208752
 20
189.4598721955634
 30
78.68091985938413
  0
VERTEX
  5
15C
  8
DEFAULT
 10
-164.7383117675781
 20
189.4415132422662
 30
78.68091985938413
  0
VERTEX
  5
15D
  8
DEFAULT
 10
-164.7508423402905
 20
189.4227938149787
 30
78.68091985938413
  0
VERTEX
  5
15E
  8
DEFAULT
 10
-164.7630139589309
 20
189.4037154336191
 30
78.68091985938413
  0
VERTEX
  5
15F
  8
DEFAULT
 10
-164.7748283222317
 20
189.3842797969199
 30
78.68091985938413
  0
VERTEX
  5
160
  8
DEFAULT
 10
-164.7862873077392
 20
189.3644887824274
 30
78.68091985938413
  0
VERTEX
  5
161
  8
DEFAULT
 10
-164.7973929718136
 20
189.3443444465018
 30
78.68091985938413
  0
VERTEX
  5
162
  8
DEFAULT
 10
-164.8081475496292
 20
189.3238490243173
 30
78.68091985938413
  0
VERTEX
  5
163
  8
DEFAULT
 10
-164.8185534551739
 20
189.3030049298621
 30
78.68091985938413
  0
VERTEX
  5
164
  8
DEFAULT
 10
-164.8286132812499
 20
189.2818147559381
 30
78.68091985938413
  0
VERTEX
  5
165
  8
DEFAULT
 10
-164.8383297994732
 20
189.2602812741613
 30
78.68091985938413
  0
VERTEX
  5
166
  8
DEFAULT
 10
-164.8477059602737
 20
189.2384074349618
 30
78.68091985938413
  0
VERTEX
  5
167
  8
DEFAULT
 10
-164.8567448928952
 20
189.2161963675833
 30
78.68091985938413
  0
VERTEX
  5
168
  8
DEFAULT
 10
-164.8654499053955
 20
189.1936513800836
 30
78.68091985938413
  0
VERTEX
  5
169
  8
DEFAULT
 10
-164.8818722963333
 20
189.1475737710214
 30
78.68091985938413
  0
VERTEX
  5
16A
  8
DEFAULT
 10
-164.8970031738281
 20
189.1002046485162
 30
78.68091985938413
  0
VERTEX
  5
16B
  8
DEFAULT
 10
-164.9108754396438
 20
189.0515769143319
 30
78.68091985938413
  0
VERTEX
  5
16C
  8
DEFAULT
 10
-164.9235248565673
 20
189.0017263312554
 30
78.68091985938413
  0
VERTEX
  5
16D
  8
DEFAULT
 10
-164.9349900484084
 20
188.9506915230966
 30
78.68091985938413
  0
VERTEX
  5
16E
  8
DEFAULT
 10
-164.9453124999999
 20
188.8985139746881
 30
78.68091985938413
  0
VERTEX
  5
16F
  8
DEFAULT
 10
-164.9545365571975
 20
188.8452380318857
 30
78.68091985938413
  0
VERTEX
  5
170
  8
DEFAULT
 10
-164.9627094268798
 20
188.790910901568
 30
78.68091985938413
  0
VERTEX
  5
171
  8
DEFAULT
 10
-164.9698811769484
 20
188.7355826516367
 30
78.68091985938413
  0
VERTEX
  5
172
  8
DEFAULT
 10
-164.976104736328
 20
188.6793062110162
 30
78.68091985938413
  0
VERTEX
  5
173
  8
DEFAULT
 10
-164.985933303833
 20
188.5641347785211
 30
78.68091985938413
  0
VERTEX
  5
174
  8
DEFAULT
 10
-164.9926757812499
 20
188.4458772559381
 30
78.68091985938413
  0
VERTEX
  5
175
  8
DEFAULT
 10
-164.9990539550781
 20
188.2022554297663
 30
78.68091985938413
  0
SEQEND
  5
176
  8
DEFAULT
  0
POLYLINE
  5
177
  8
DEFAULT
 66
     1
 10
0.0
 20
0.0
 30
78.68091985938409
 70
     1
  0
VERTEX
  5
178
  8
DEFAULT
 10
-160.0
 20
185.9532014746882
 30
78.68091985938409
  0
VERTEX
  5
179
  8
DEFAULT
 10
-160.0
 20
186.4532014746882
 30
78.68091985938409
 42
-0.6250000000000256
  0
VERTEX
  5
17A
  8
DEFAULT
 10
-159.5
 20
186.9532014746882
 30
78.68091985938409
  0
VERTEX
  5
17B
  8
DEFAULT
 10
-155.5
 20
186.9532014746882
 30
78.68091985938409
 42
-0.6249999999999817
  0
VERTEX
  5
17C
  8
DEFAULT
 10
-155.0000000000001
 20
186.4532014746882
 30
78.68091985938409
  0
VERTEX
  5
17D
  8
DEFAULT
 10
-155.0
 20
185.9532014746882
 30
78.68091985938409
 42
-0.6249999999999616
  0
VERTEX
  5
17E
  8
DEFAULT
 10
-155.5
 20
185.4532014746882
 30
78.68091985938409
  0
VERTEX
  5
17F
  8
DEFAULT
 10
-159.5
 20
185.4532014746882
 30
78.68091985938409
 42
-0.6250000000000695
  0
SEQEND
  5
180
  8
DEFAULT
  0
POLYLINE
  5
181
  8
DEFAULT
 66
     1
 10
0.0
 20
0.0
 30
78.68091985938406
 70
     1
  0
VERTEX
  5
182
  8
DEFAULT
 10
-155.5
 20
168.9532014746882
 30
78.68091985938406
  0
VERTEX
  5
183
  8
DEFAULT
 10
-159.5
 20
168.9532014746882
 30
78.68091985938406
 42
-0.6249999999999177
  0
VERTEX
  5
184
  8
DEFAULT
 10
-160.0
 20
169.4532014746882
 30
78.68091985938406
  0
VERTEX
  5
185
  8
DEFAULT
 10
-160.0
 20
169.9532014746882
 30
78.68091985938406
 42
-0.6249999999998762
  0
VERTEX
  5
186
  8
DEFAULT
 10
-159.5
 20
170.4532014746882
 30
78.68091985938406
  0
VERTEX
  5
187
  8
DEFAULT
 10
-155.5
 20
170.4532014746882
 30
78.68091985938406
 42
-0.624999999999971
  0
VERTEX
  5
188
  8
DEFAULT
 10
-155.0
 20
169.9532014746882
 30
78.68091985938406
  0
VERTEX
  5
189
  8
DEFAULT
 10
-155.0
 20
169.4532014746882
 30
78.68091985938406
 42
-0.6249999999999296
  0
SEQEND
  5
18A
  8
DEFAULT
  0
ENDSEC
  0
EOF
